<?xml version="1.0" encoding="utf-8"?>
<!-- Generator: Adobe Illustrator 16.0.0, SVG Export Plug-In . SVG Version: 6.00 Build 0)  -->
<!DOCTYPE svg PUBLIC "-//W3C//DTD SVG 1.1//EN" "http://www.w3.org/Graphics/SVG/1.1/DTD/svg11.dtd">
<svg version="1.1" id="Capa_1" xmlns="http://www.w3.org/2000/svg" xmlns:xlink="http://www.w3.org/1999/xlink" x="0px" y="0px"
	 width="131.734px" height="38.784px" viewBox="0 0 131.734 38.784" enable-background="new 0 0 131.734 38.784"
	 xml:space="preserve">
<g>
	<path fill="#D2853D" d="M19.505,24.004c-2.441,0-4.429-2.002-4.429-4.461s1.987-4.459,4.429-4.459s4.428,2,4.428,4.459
		S21.946,24.004,19.505,24.004 M19.505,16.551c-1.639,0-2.971,1.342-2.971,2.992s1.332,2.994,2.971,2.994
		c1.64,0,2.973-1.344,2.973-2.994S21.145,16.551,19.505,16.551"/>
	<path fill="#E5B545" d="M19.505,27.628c-4.426,0-8.026-3.626-8.026-8.085c0-4.456,3.601-8.082,8.026-8.082
		c4.425,0,8.024,3.626,8.024,8.082C27.529,24.002,23.93,27.628,19.505,27.628 M19.505,12.93c-3.621,0-6.568,2.966-6.568,6.613
		c0,3.648,2.947,6.617,6.568,6.617s6.566-2.969,6.566-6.617C26.071,15.896,23.126,12.93,19.505,12.93"/>
	<path fill="#9CBA5A" d="M18.235,30.682c-5.428,0-9.844-4.446-9.844-9.912c0-5.47,4.416-9.918,9.844-9.918
		c5.429,0,9.847,4.448,9.847,9.918C28.082,26.235,23.664,30.682,18.235,30.682 M18.235,12.319c-4.624,0-8.388,3.79-8.388,8.45
		c0,4.655,3.764,8.445,8.388,8.445c4.625,0,8.387-3.79,8.387-8.445C26.622,16.109,22.86,12.319,18.235,12.319"/>
	<path fill="#57923E" d="M19.452,31.237c-6.434,0-11.667-5.271-11.667-11.747c0-6.479,5.233-11.749,11.667-11.749
		c6.432,0,11.663,5.27,11.663,11.749C31.115,25.967,25.884,31.237,19.452,31.237 M19.452,9.209c-5.629,0-10.208,4.612-10.208,10.281
		c0,5.668,4.579,10.279,10.208,10.279c5.628,0,10.208-4.611,10.208-10.279C29.66,13.821,25.08,9.209,19.452,9.209"/>
	<path fill="#7EA6C8" d="M18.235,34.346c-7.436,0-13.484-6.091-13.484-13.576c0-7.488,6.049-13.581,13.484-13.581
		s13.485,6.093,13.485,13.581C31.721,28.255,25.671,34.346,18.235,34.346 M18.235,8.657c-6.632,0-12.027,5.432-12.027,12.112
		c0,6.676,5.396,12.108,12.027,12.108c6.633,0,12.029-5.433,12.029-12.108C30.265,14.089,24.868,8.657,18.235,8.657"/>
	<path fill="#436382" d="M19.425,34.822c-8.439,0-15.304-6.915-15.304-15.412c0-8.498,6.864-15.412,15.304-15.412
		c8.438,0,15.304,6.915,15.304,15.412C34.729,27.907,27.863,34.822,19.425,34.822 M19.425,5.466
		c-7.635,0-13.848,6.254-13.848,13.944c0,7.688,6.213,13.944,13.848,13.944s13.847-6.256,13.847-13.944
		C33.271,11.72,27.06,5.466,19.425,5.466"/>
	<path fill="#69415F" d="M18.096,37.939c-9.443,0-17.123-7.736-17.123-17.244c0-9.509,7.68-17.243,17.123-17.243
		c9.441,0,17.123,7.734,17.123,17.245C35.219,30.204,27.537,37.939,18.096,37.939 M18.096,4.919
		c-8.638,0-15.666,7.076-15.666,15.776c0,8.698,7.028,15.777,15.666,15.777c8.64,0,15.665-7.078,15.665-15.775
		C33.761,11.996,26.735,4.919,18.096,4.919"/>
	<path fill="#C02119" d="M19.332,38.472c-10.446,0-18.944-8.556-18.944-19.075C0.388,8.877,8.886,0.32,19.332,0.32
		c10.445,0,18.942,8.557,18.942,19.076C38.274,29.916,29.777,38.472,19.332,38.472 M19.332,1.788
		c-9.644,0-17.485,7.899-17.485,17.608s7.842,17.608,17.485,17.608c9.641,0,17.486-7.899,17.486-17.608S28.973,1.788,19.332,1.788"
		/>
</g>
<g>
	<path fill="#FFFFFF" d="M45.519,36.227V10.583l0.697-0.146c2.445-0.505,5.183-0.762,8.129-0.762c3.394,0,6,0.8,7.751,2.385
		c1.777,1.612,2.676,4.017,2.676,7.145c0,3.398-0.81,6.008-2.415,7.762c-1.624,1.773-4.046,2.672-7.203,2.672
		c-1.126,0-2.241-0.167-3.325-0.492v7.08H45.519z M51.828,23.438c1.001,0.417,2.111,0.626,3.311,0.626
		c1.135,0,1.944-0.358,2.484-1.087c0.589-0.805,0.89-2.083,0.89-3.804c0-2.784-1.228-4.028-3.979-4.028
		c-1.073,0-1.981,0.043-2.706,0.125V23.438z"/>
	<path fill="#FFFFFF" d="M79.783,29.639l-0.422-1.79c-1.992,1.191-4.021,1.79-6.047,1.79c-4.646,0-7.107-2.65-7.107-7.661V9.675
		h6.314v12.356c0,0.762,0.163,1.313,0.486,1.643c0.319,0.327,0.857,0.492,1.598,0.492c1.273,0,2.618-0.612,3.997-1.817V9.675h6.312
		v19.964H79.783z"/>
	<rect x="86.863" y="3.084" fill="#FFFFFF" width="6.311" height="26.554"/>
	<polygon fill="#FFFFFF" points="95.098,29.639 95.098,24.967 103.457,15.076 95.438,15.076 95.438,9.675 111.132,9.675 
		111.132,14.516 102.891,24.411 110.787,24.411 110.787,29.639 	"/>
	<path fill="#FFFFFF" d="M121.445,29.795c-3.254,0-5.762-0.865-7.446-2.574c-1.68-1.703-2.539-4.249-2.552-7.561
		c0-3.32,0.855-5.868,2.533-7.58c1.685-1.711,4.197-2.581,7.465-2.581c3.271,0,5.783,0.87,7.467,2.581
		c1.68,1.712,2.532,4.259,2.532,7.578c0,3.312-0.854,5.855-2.532,7.562C127.229,28.93,124.717,29.795,121.445,29.795
		 M121.445,14.905c-1.257,0-2.155,0.35-2.743,1.068c-0.622,0.762-0.942,1.977-0.942,3.615c0,1.686,0.32,2.937,0.947,3.723
		c0.591,0.74,1.488,1.101,2.738,1.101c1.254,0,2.148-0.36,2.739-1.101c0.629-0.786,0.948-2.037,0.948-3.723
		c0-1.639-0.318-2.854-0.94-3.615C123.603,15.254,122.702,14.905,121.445,14.905"/>
</g>
</svg>
